PathFileType	4	(X/Y/Z)	jw_ngait_og1_rotated.trc
DataRate	CameraRate	NumFrames	NumMarkers	Units	OrigDataRate	OrigDataStartFrame	OrigNumFrames
120.000000	120.000000	5	56	mm	120.000000	287	327
Frame#	Time	Sternum			Neck			RShoulder			LShoulder			Xiphoid			Thoracic			RAsis			LAsis			RPsis			LPsis			Lumbar			RElbow			RWrist			RRadius			RUlna			LElbow			LWrist			LUlna			LRadius			LThighSuperior			LThighInferior			LThighLateral			LPatella			LShankSuperior			LShankInferior			LShankLateral			RThighSuperior			RThighInferior			RThighLateral			RPatella			RShankSuperior			RShankInferior			RShankLateral			RHeel			RToe			RMidfootMedial			RMidfootLateral			RHindfoot			RMidfootSuperior			RToeMedial			RToeLateral			LHeel			LToe			LMidfootMedial			LMidfootLateral			LHindfoot			LMidfootSuperior			LToeMedial			LToeLateral			LShoulderCenter			Oglobal			RShoulderCenter			Sacral			Xglobal			Yglobal			Zglobal			
		X1	Y1	Z1	X2	Y2	Z2	X3	Y3	Z3	X4	Y4	Z4	X5	Y5	Z5	X6	Y6	Z6	X7	Y7	Z7	X8	Y8	Z8	X9	Y9	Z9	X10	Y10	Z10	X11	Y11	Z11	X12	Y12	Z12	X13	Y13	Z13	X14	Y14	Z14	X15	Y15	Z15	X16	Y16	Z16	X17	Y17	Z17	X18	Y18	Z18	X19	Y19	Z19	X20	Y20	Z20	X21	Y21	Z21	X22	Y22	Z22	X23	Y23	Z23	X24	Y24	Z24	X25	Y25	Z25	X26	Y26	Z26	X27	Y27	Z27	X28	Y28	Z28	X29	Y29	Z29	X30	Y30	Z30	X31	Y31	Z31	X32	Y32	Z32	X33	Y33	Z33	X34	Y34	Z34	X35	Y35	Z35	X36	Y36	Z36	X37	Y37	Z37	X38	Y38	Z38	X39	Y39	Z39	X40	Y40	Z40	X41	Y41	Z41	X42	Y42	Z42	X43	Y43	Z43	X44	Y44	Z44	X45	Y45	Z45	X46	Y46	Z46	X47	Y47	Z47	X48	Y48	Z48	X49	Y49	Z49	X50	Y50	Z50	X51	Y51	Z51	X52	Y52	Z52	X53	Y53	Z53	X54	Y54	Z54	X55	Y55	Z55	X56	Y56	Z56	

287.00000	3.34167	-1341.86682	1317.52185	-156.92354	-1208.22192	1434.63379	-158.83043	-1269.92798	1380.04419	-335.41217	-1262.80774	1379.49475	28.61367	-1332.67627	1201.08691	-153.27997	-1110.15955	1249.23450	-148.82617	-1301.37744	974.17413	-290.90891	-1291.89966	960.05371	-17.83461	-1085.22644	963.76404	-171.16830	-1084.11682	960.92822	-111.89063	-1091.71448	1032.00183	-151.51913	-1193.42065	1057.05994	-433.57962	-1279.20581	805.05109	-419.92496	-1295.11353	812.50165	-383.81265	-1230.72424	803.28094	-418.20377	-1138.37354	1069.64453	85.04634	-1141.55322	795.24774	74.54057	-1092.61267	804.94006	68.74481	-1159.84363	814.70197	37.82447	-1274.54285	790.36188	38.83551	-1393.27441	575.66547	-0.97122	-1389.09436	691.59540	-25.90993	-1460.90332	533.70709	-66.37836	-1442.40930	446.90625	-14.36817	-1551.41138	209.85793	-33.33524	-1525.88269	339.59909	-83.15137	-1208.25232	787.34778	-319.64975	-1159.86450	554.04028	-268.84805	-1235.35925	632.22150	-250.30946	-1167.61096	480.45566	-221.66258	-1026.80017	400.07236	-275.85544	-973.84998	170.82123	-229.44385	-1049.65393	256.84677	-197.10861	-857.93512	74.65092	-184.32967	-1146.74548	37.26456	-249.00980	-1074.41211	26.32892	-177.96387	-1039.78491	37.09001	-286.98978	-958.86145	30.85492	-271.99664	-1033.91272	104.61044	-217.96356	-1112.82397	32.36234	-197.29218	-1097.93152	37.01807	-285.66953	-1550.43396	42.23883	-73.09598	-1788.49548	222.33168	-55.99370	-1726.93335	158.28564	-119.37113	-1720.42444	143.48412	4.21626	-1647.22803	71.69688	-11.85552	-1649.70215	190.72026	-56.78799	-1759.97693	193.52510	-97.42428	-1755.50000	179.25337	-8.84823	-1235.75220	1334.61853	16.70849	0.00000	0.00000	0.00000	-1244.44238	1335.88354	-335.19437	-1084.67163	962.34613	-141.52946	200.00000	0.00000	0.00000	0.00000	0.00000	-200.00000	0.00000	200.00000	0.00000
288.00000	3.35000	-1352.30371	1316.27454	-155.89404	-1218.20642	1432.78735	-157.82436	-1280.07385	1378.87976	-334.53210	-1273.09338	1378.01672	29.77036	-1343.60889	1199.93188	-152.24352	-1121.03564	1247.06091	-147.83490	-1314.04932	973.04584	-290.11758	-1303.54346	958.33313	-16.61876	-1097.39160	961.85223	-170.64461	-1096.08545	958.73944	-111.49015	-1103.68433	1030.00659	-151.17583	-1203.59583	1055.73438	-432.45734	-1290.46082	804.05231	-419.54065	-1307.01611	812.19690	-383.98294	-1242.15771	802.02960	-417.35095	-1150.56323	1067.49744	86.13396	-1152.32593	793.10748	75.34312	-1103.35229	802.96674	70.38268	-1169.96887	812.54272	38.32888	-1287.25647	789.55823	39.17390	-1406.00403	575.60498	-2.22872	-1401.63354	693.97064	-26.66294	-1473.67102	532.51501	-65.37436	-1453.53345	443.87329	-14.79090	-1558.86414	205.19708	-35.23819	-1536.15540	335.86902	-83.66405	-1219.67285	786.27435	-318.97937	-1169.11157	553.32678	-268.96017	-1245.33228	630.72357	-250.40567	-1176.16992	478.77554	-222.05325	-1033.60498	401.30994	-275.62817	-976.38373	172.64655	-229.53607	-1054.23364	257.43192	-196.86180	-859.29419	78.46560	-183.93597	-1146.78943	36.75341	-249.37622	-1074.92993	26.45620	-178.09799	-1040.07239	37.17336	-287.05481	-959.14069	32.39159	-271.76578	-1035.63635	105.18945	-218.40967	-1113.05103	32.18801	-197.52989	-1098.01794	36.57913	-285.91754	-1556.31970	38.07506	-76.97216	-1794.90564	215.08180	-53.54406	-1734.40735	153.18344	-119.34118	-1726.19336	136.67828	3.92846	-1654.85278	67.16032	-12.89105	-1656.68591	185.43256	-57.27518	-1767.64771	187.40758	-95.90585	-1761.24695	172.29190	-7.44620	-1246.18579	1332.78711	17.79247	0.00000	0.00000	0.00000	-1254.73254	1334.36218	-334.11264	-1096.73853	960.29584	-141.06738	200.00000	0.00000	0.00000	0.00000	0.00000	-200.00000	0.00000	200.00000	0.00000
289.00000	3.35833	-1362.80054	1315.06409	-154.68861	-1228.27380	1431.15759	-156.59337	-1290.35315	1377.57764	-333.24557	-1283.31702	1376.56824	31.02621	-1354.53772	1198.74377	-150.96452	-1131.89355	1244.79785	-147.16869	-1326.84375	971.78894	-289.03336	-1315.17529	956.71051	-15.30918	-1109.86243	959.98785	-170.06789	-1108.01575	956.78186	-111.15474	-1115.75439	1028.13135	-150.78902	-1213.79004	1054.60999	-431.31772	-1301.90320	803.41571	-419.15805	-1318.90283	811.39417	-383.76297	-1253.53748	800.96344	-416.49155	-1162.74976	1065.20984	87.31837	-1163.41724	790.64490	76.21190	-1114.48328	801.11597	72.13187	-1180.84106	810.49255	39.33628	-1300.04553	788.92108	39.68866	-1419.25269	575.02148	-3.34958	-1414.54126	696.27753	-27.00079	-1486.70715	531.41443	-64.78212	-1464.44702	440.72888	-15.13346	-1565.07629	199.91158	-37.20576	-1546.08289	331.70380	-84.14417	-1231.05188	785.49548	-318.61777	-1178.99146	552.52277	-269.21060	-1256.09851	629.47845	-250.73111	-1185.42261	476.98282	-222.60394	-1041.01831	402.42416	-275.63507	-979.25128	174.88591	-229.97945	-1059.22986	258.06601	-197.14270	-860.99896	82.63541	-183.52611	-1146.81519	36.16502	-249.71971	-1075.69226	26.80159	-178.31207	-1040.52100	37.39258	-287.18036	-959.58325	34.14436	-271.51587	-1037.54187	105.93720	-218.97414	-1113.30640	32.00624	-197.72223	-1098.06689	36.17617	-286.17886	-1560.17236	33.12948	-81.13733	-1800.38416	206.84482	-50.89995	-1740.65564	146.23845	-118.45300	-1729.56921	128.56346	4.42900	-1658.45532	60.53020	-14.17416	-1662.19080	179.08923	-57.69041	-1773.88611	180.01140	-93.95736	-1765.56592	163.91951	-5.84134	-1256.59937	1331.16040	18.98609	0.00000	0.00000	0.00000	-1265.19788	1332.88306	-332.91705	-1108.93909	958.38489	-140.61131	200.00000	0.00000	0.00000	0.00000	0.00000	-200.00000	0.00000	200.00000	0.00000
290.00000	3.36667	-1373.46375	1314.26648	-153.28267	-1238.24268	1429.67542	-155.31592	-1300.75916	1376.41223	-331.86609	-1293.31812	1375.24597	32.41667	-1365.81372	1198.01062	-149.52252	-1142.78833	1242.76343	-146.43127	-1339.89136	971.08881	-287.37680	-1327.16101	955.35309	-13.83059	-1122.31836	958.08923	-169.78792	-1120.31531	954.71698	-110.92950	-1127.98315	1026.18176	-149.93245	-1224.39209	1053.59290	-430.24127	-1313.43591	802.74255	-418.56677	-1330.57910	810.94110	-383.39975	-1265.21069	800.08038	-415.48569	-1174.98486	1063.14282	88.62621	-1175.22766	788.68341	77.44421	-1126.10925	799.39697	74.17865	-1192.00977	808.39368	40.38220	-1312.74194	788.04016	40.30344	-1432.68945	574.15179	-4.56219	-1427.53284	698.26361	-27.46364	-1499.58276	530.09937	-64.15057	-1475.22571	436.98184	-15.38916	-1569.91174	194.11279	-39.37853	-1555.29468	326.96216	-84.58028	-1242.56836	784.78296	-318.23254	-1189.55640	551.90424	-269.53360	-1267.41663	628.71100	-251.10881	-1195.49670	475.17963	-223.42953	-1048.96912	403.56403	-275.83081	-982.67358	177.36348	-230.03546	-1064.45667	258.91168	-197.49403	-862.80536	87.26350	-183.07419	-1147.12231	35.73578	-249.93405	-1076.31091	27.00248	-178.40643	-1040.93164	37.76482	-287.19046	-960.07788	36.25019	-271.25165	-1039.56982	106.69633	-219.31436	-1113.57544	31.91183	-197.89052	-1098.20325	36.05136	-286.38791	-1561.12158	28.99766	-85.19660	-1804.92346	197.49666	-48.09915	-1744.54346	138.51880	-118.69013	-1731.78394	118.93787	3.73975	-1659.62927	53.59148	-16.79805	-1666.23608	172.10912	-58.12953	-1778.93835	171.59631	-92.18685	-1768.43713	154.47430	-4.43554	-1266.98047	1329.72424	20.27727	0.00000	0.00000	0.00000	-1275.96570	1331.60828	-331.61539	-1121.31689	956.40308	-140.35870	200.00000	0.00000	0.00000	0.00000	0.00000	-200.00000	0.00000	200.00000	0.00000
291.00000	3.37500	-1383.98108	1313.43188	-151.70555	-1248.07422	1428.11499	-153.83832	-1311.00793	1375.50500	-330.41449	-1302.92139	1374.17456	34.01949	-1376.99780	1197.14648	-147.80321	-1153.88257	1240.39612	-145.35768	-1353.06702	969.94354	-286.09918	-1339.14697	953.90076	-12.24457	-1134.98633	956.26770	-169.35390	-1132.61548	952.60120	-110.72952	-1140.36584	1024.23560	-149.36250	-1234.67688	1052.70105	-428.89603	-1324.80457	802.24078	-417.93179	-1342.10181	810.21820	-382.80289	-1276.61560	799.18408	-414.58566	-1187.15649	1061.18762	90.11349	-1187.31665	786.75372	78.83836	-1138.11621	797.64807	76.30605	-1203.43848	806.46149	41.64048	-1325.18176	786.54224	41.08821	-1445.25049	572.71674	-6.38106	-1440.43933	699.12073	-28.07977	-1511.83728	527.74518	-63.30902	-1485.46729	433.23099	-15.59727	-1573.73328	187.98651	-41.44970	-1563.84839	321.86783	-85.06695	-1254.84583	784.13043	-317.43372	-1200.56396	551.40619	-270.15884	-1278.68811	627.05225	-251.10498	-1205.94495	472.88980	-224.53520	-1057.49097	404.72153	-276.09113	-986.39807	179.92949	-230.12070	-1069.20654	258.73572	-197.72772	-864.91412	92.31876	-182.57593	-1147.07300	34.94172	-249.81061	-1077.09119	27.49676	-178.47649	-1041.37659	38.08888	-287.16760	-960.74329	38.40786	-270.90552	-1041.87366	107.61395	-219.88896	-1113.74573	31.72459	-198.06256	-1098.23804	35.75258	-286.55655	-1562.46375	27.10932	-86.18782	-1810.33350	188.12521	-48.27635	-1750.77527	128.58841	-117.82753	-1734.59009	112.21121	4.66787	-1658.25623	48.07283	-17.27214	-1672.17371	166.04813	-59.86514	-1783.94861	162.07330	-92.20969	-1772.47778	146.58673	-4.36148	-1277.10388	1328.23352	21.66936	0.00000	0.00000	0.00000	-1286.70483	1330.28564	-330.20612	-1133.80090	954.43445	-140.04172	200.00000	0.00000	0.00000	0.00000	0.00000	-200.00000	0.00000	200.00000	0.00000
